<svg width="264" height="264" viewBox="0 0 264 264" fill="none" xmlns="http://www.w3.org/2000/svg">
<path d="M4 80.8V29.6C4 22.8105 6.69713 16.299 11.4981 11.4981C16.299 6.69713 22.8105 4 29.6 4H234.4C241.19 4 247.701 6.69713 252.502 11.4981C257.303 16.299 260 22.8105 260 29.6V80.8H4ZM183.2 106.4V260H234.4C241.19 260 247.701 257.303 252.502 252.502C257.303 247.701 260 241.19 260 234.4V106.4H183.2Z" fill="#1976D2" stroke="#1976D2" stroke-width="6.912"/>
<path d="M157.6 106.4H4V234.4C4 241.19 6.69713 247.701 11.4981 252.502C16.299 257.303 22.8105 260 29.6 260H157.6V106.4Z" fill="#1976D2" stroke="#1976D2" stroke-width="6.912"/>
</svg>
