<svg width="256" height="256" viewBox="0 0 256 256" fill="none" xmlns="http://www.w3.org/2000/svg">
<path d="M128 256C57.3056 256 0 198.694 0 128C0 57.3056 57.3056 0 128 0C198.694 0 256 57.3056 256 128C256 198.694 198.694 256 128 256ZM75.776 92.5952V93.9008C75.776 95.5982 76.4503 97.2261 77.6505 98.4263C78.8507 99.6265 80.4786 100.301 82.176 100.301H94.9376C95.7764 100.301 96.6069 100.136 97.3819 99.8146C98.1568 99.4936 98.8609 99.0231 99.454 98.43C100.047 97.8369 100.518 97.1328 100.839 96.3579C101.16 95.5829 101.325 94.7524 101.325 93.9136C101.325 77.4016 114.099 68.5824 131.277 68.5824C148.019 68.5824 159.027 77.4016 159.027 89.9584C159.027 101.837 152.858 107.354 137.446 114.406L133.043 116.378C120.051 122.112 115.2 130.688 115.2 145.677V147.2C115.2 148.897 115.874 150.525 117.075 151.725C118.275 152.926 119.903 153.6 121.6 153.6H134.362C135.2 153.6 136.031 153.435 136.806 153.114C137.581 152.793 138.285 152.322 138.878 151.729C139.471 151.136 139.942 150.432 140.263 149.657C140.584 148.882 140.749 148.052 140.749 147.213C140.749 140.608 142.515 137.958 147.789 135.539L152.205 133.555C170.701 125.184 184.576 114.176 184.576 90.1632V88.8448C184.576 63.5264 162.56 44.8 131.277 44.8C99.5584 44.8 75.776 63.0784 75.776 92.5952ZM108.8 191.885C108.8 202.982 117.235 211.2 127.885 211.2C138.765 211.2 147.2 202.982 147.2 191.885C147.2 180.787 138.765 172.8 127.885 172.8C117.235 172.8 108.8 180.787 108.8 191.885Z" fill="#1976D2" stroke="#1976D2" stroke-width="0.00256"/>
</svg>
